<svg width="503" height="371" xmlns="http://www.w3.org/2000/svg">
  <path d="m106,93c0,1 0,2 0,4c0,1 1.67963,1.02583 2,3c0.50654,3.12144 2.61065,4.15928 4,7c1.58411,3.23892 3.92807,5.61105 6,8c1.46507,1.68925 2.82375,3.48626 5,4c0.97325,0.22975 1,2 3,2l0,1l1,0" id="svg_12" stroke="#000" fill="none"/>
  <path d="m193,87c0,1 -2,2 -2,4c0,1 -0.29289,2.29289 -1,3c-0.70711,0.70711 -1.33749,1.31001 -3,4c-1.487,2.40601 -1.69344,5.4588 -3,6c-1.84776,0.76537 -3.31001,1.33749 -6,3c-2.40601,1.48699 -2.88152,3.19028 -6,5c-1.93399,1.12234 -3.15224,2.23463 -5,3c-1.30656,0.5412 -3,1 -4,1c-2,0 -3,2 -6,2c-2,0 -3,1 -5,1l-1,0" id="svg_13" stroke="#000" fill="none"/>
  <path d="m70,140c2,0 3,0 5,0c1,0 4,-2 7,-2c3,0 8,0 11,0c6,0 10,0 15,0c6,0 10,0 16,0c5,0 11,0 17,0c6,0 12,0 18,0c4,0 12,0 16,0c8,0 14,0 20,0c7,0 12,0 19,0c6,0 11,1 15,1l5,0l1,0" id="svg_14" stroke="#000" fill="none"/>
  <path d="m139,161c-2,0 -4.77025,2.02675 -5,3c-0.51375,2.17625 -4.05414,2.43268 -7,3c-5.28799,1.01837 -7.6475,3.97252 -12,5c-2.91975,0.68925 -9.12872,0.13065 -12,1c-3.45084,1.04483 -8.01291,1.83981 -9,2c-3.12144,0.50655 -5,1 -8,1c-1,0 -3,0 -3,2l-1,0" id="svg_15" stroke="#000" fill="none"/>
  <path d="m68,198c1,0 1.61732,1.07613 2,2c1.08239,2.61313 2.49346,2.87856 3,6c0.32037,1.97418 1.51945,6.03874 2,9c0.50654,3.12144 2.60585,8.01947 3,12c0.50245,5.0742 1,9 1,14c0,4 0,7 0,12c0,3 0,6 0,7c0,2 0,3 0,5l2,0" id="svg_16" stroke="#000" fill="none"/>
  <path d="m111,192c1,0 3,0 4,0c2,0 5,0 6,0c3,0 6,-1 11,-1c3,0 7,0 12,0c3,0 7,0 12,0c4,0 7,-2 12,-2c3,0 7,-1 9,-1c4,0 6.54915,-0.95517 10,-2c1.91418,-0.57957 3,0 5,0c1,0 3,0 4,0c2,0 2,1 2,2c0,2 0,3 0,8c0,3 1,4 1,9c0,4 0,10 0,16c0,3 0,11 0,15c0,5 0,8 0,12c0,3 0,6 0,9c0,3 0,6 0,9c0,2 0,3 0,5l0,1l-2,0" id="svg_17" stroke="#000" fill="none"/>
  <path d="m127,219c2,0 3,0 5,0c1,0 3,-1 6,-1c1,0 3.38687,-0.9176 6,-2c2.77164,-1.14806 4.15224,0.76537 6,0c1.30656,-0.5412 3,-1 4,-1c2,0 3,0 5,0c1,0 3,-2 4,-2c2,0 3,0 3,-1l2,0" id="svg_18" stroke="#000" fill="none"/>
  <path d="m115,244c2,0 3,0 5,0c1,0 3,0 6,0c1,0 4,0 6,0c3,0 4.02582,0.32036 6,0c3.12144,-0.50655 4,-1 6,-1c3,0 3.87856,-0.49345 7,-1c1.97418,-0.32036 3,0 6,0c2,0 3,0 5,0l1,0l2,0" id="svg_19" stroke="#000" fill="none"/>
  <path d="m98,277c1,0 2,0 4,0c3,0 6.05165,0.64072 10,0c3.12144,-0.50653 6.03746,-0.38907 11,-1c4.09222,-0.50378 7,-1 10,-1c3,0 6,-2 9,-2c2,0 3,0 5,0c1,0 3.29289,0.70709 4,0c0.70711,-0.70709 2,-1 3,-1c2,0 3,0 5,0l1,0" id="svg_20" stroke="#000" fill="none"/>
  <path d="m299,98c1,0 2,0 4,0c1,0 3.12872,0.86935 6,0c3.45084,-1.04483 6,-2 9,-2c3,0 7,-1 10,-1c3,0 6,-2 11,-2c6,0 10,-1 16,-1c6,0 12,0 18,0c5,0 11,0 15,0c5,0 8,0 11,0c1,0 4,0 6,0l1,0l2,0" id="svg_30" stroke="#000" fill="none"/>
  <path d="m353,110c-1,0 -2.29291,2.29289 -3,3c-0.70709,0.70711 -1.82443,1.09789 -3,3c-1.05145,1.7013 -1.58578,1.58578 -3,3c-1.41422,1.41422 -1,3 -3,5c-1,1 -2.41885,1.41886 -4,3c-1.58115,1.58115 -2.38687,1.9176 -5,3c-2.77164,1.14806 -3.38687,1.9176 -6,3c-2.77164,1.14806 -3.87857,0.49345 -7,1c-2.96127,0.48055 -6.12872,-0.86935 -9,0c-3.45084,1.04483 -6,2 -8,2c-3,0 -4,1 -6,1l-1,0" id="svg_31" stroke="#000" fill="none"/>
  <path d="m289,152c0,2 2,3 2,5c0,1 0,3 0,6c0,3 0.49622,5.90779 1,10c0.36655,2.97752 0,6 0,9c0,3 0,5 0,8c0,1 2,3 2,6c0,1 1,4 1,6c0,3 0,6 0,7c0,2 0,5 0,8c0,1 0,3 0,4c0,2 0,3 0,5c0,1 0,3 0,4c0,2 0,3 0,5c0,1 0,3 0,4c0,3 0,5 0,6l0,2" id="svg_32" stroke="#000" fill="none"/>
  <path d="m312,149c1,0 3,0 6,0c3,0 6,0 9,0c4,0 9,0 12,0c4,0 7,0 13,0c3,0 8,0 12,0c3,0 8,0 14,0c4,0 9,0 15,0c4,0 9,0 13,0c5,0 8,0 11,0c1,0 4,0 6,0c1,0 1,2 1,3c0,2 0,3 0,5c0,1 0,3 0,6c0,1 0,4 0,7c0,2 -2,5 -2,6c0,2 -1,5 -1,6c0,2 -0.9176,2.38687 -2,5c-1.14804,2.77164 0,4 0,6c0,1 0.68927,4.08025 0,7c-0.51373,2.17625 -1,3 -1,6c0,3 0,6 0,8c0,3 0,4 0,7c0,2 0,3 0,5c0,3 0,4 0,6c0,1 0,3 0,4c0,2 0,3 0,5c0,1 0,3 0,4c0,2 0,3 0,5c0,1 0,4 0,6c0,1 0,4 0,6l0,1l0,2l0,1" id="svg_33" stroke="#000" fill="none"/>
  <path d="m323,185c0,-2 1,-2 2,-2c2,0 3,0 5,0c1,0 3,-1 6,-1c1,0 4,0 7,0c3,0 6,0 9,0c3,0 8,0 11,0c4,0 6,0 10,0c3,0 6,0 9,0c3,0 6,0 8,0c4,0 6,0 9,0l1,0l2,0l1,0" id="svg_34" stroke="#000" fill="none"/>
  <path d="m320,223c1,0 2,0 4,0c1,0 3,0 6,0c4,0 7,0 10,0c3,0 8,0 9,0c5,0 8,0 11,0c3,0 6.22836,-1.14806 9,0c1.30655,0.5412 3,1 4,1c2,0 3,0 5,0c1,0 3,0 4,0l2,0l1,0" id="svg_35" stroke="#000" fill="none"/>
  <path d="m310,257c2,0 3.29871,1.05145 5,0c1.9021,-1.17557 3,-2 4,-2c2,0 5,0 6,0c3,0 4.87857,-0.49345 8,-1c2.96127,-0.48055 4.12872,0.86935 7,0c3.45084,-1.04483 5,-2 9,-2c3,0 6,-1 11,-1c3,0 7,0 10,0c2,0 6,0 9,0c3,0 5,0 6,0l2,0" id="svg_36" stroke="#000" fill="none"/>
  <path d="m340,273c-2,1 -2.07611,1.61731 -3,2c-2.61313,1.0824 -3,3 -5,5c-1,1 -3.01291,2.83981 -4,3c-3.12143,0.50653 -5,3 -6,4c-2,2 -5,3 -6,3c-2,0 -3.08026,1.31073 -6,2c-2.17624,0.51373 -4.0979,1.82443 -6,3c-2.55194,1.57718 -5,0 -6,0l-2,0" id="svg_37" stroke="#000" fill="none"/>
  <path d="m358,280.83472c2,0 1.58578,-0.58578 3,-2c1.41422,-1.41422 3.15225,-0.76538 5,0c1.30655,0.5412 2.39099,1.7695 6,4c2.69,1.66251 4.76395,3.76395 7,6c2.23605,2.23605 6.41885,2.41885 8,4c1.58115,1.58115 3.02676,1.77023 4,2c2.17624,0.51373 5.04291,0.71021 6,1c3.45084,1.04483 6.01459,1.70438 9,2c5.07422,0.50244 6,1 8,1l1,0" id="svg_38" stroke="#000" fill="none"/>
</svg>